<?xml version="1.0" encoding="UTF-8"?>
<svg width="886"
     height="886"
     version="1.1"
     viewBox="0 0 886 886"
     xmlns="http://www.w3.org/2000/svg"
     xmlns:xlink="http://www.w3.org/1999/xlink">
  <circle cx="443" cy="443" fill="#3b6af9" r="443"/>
  <g fill="#ffffff" transform="translate(91.805,163.255)">
    <path
          d="m356.11 100.8h-12.211c-44.801 0-68.656 46.031-68.656 91.504 0 46.762 24.246 106.4 70.055 172.26l0.003906-0.003906c1.0547 1.5625 2.8203 2.4883 4.7031 2.4648 1.8828 0.023437 3.6484-0.90234 4.7031-2.4648 45.695-65.629 70.059-125.16 70.059-172.25 0-45.473-23.578-91.504-68.656-91.504zm-6.1055 250.38c-41.441-61.266-63.281-115.98-63.281-158.87 0-39.816 19.656-80.078 57.176-80.078h12.207c37.52 0 57.176 40.266 57.176 80.078 0.003906 42.895-21.836 97.887-63.277 158.87z" />
    <path
          d="m441.34 461.72c-0.67188-0.61719-10.754-10.473-26.266-28 45.922-62.383 99.121-153.78 99.121-241.64 0-102.93-67.926-180.88-158.09-180.88h-12.211c-90.16 0-158.09 77.953-158.09 181.11 0 87.863 53.258 179.2 99.121 241.59-15.625 17.414-26.039 27.609-25.984 27.609l-0.50391 0.44922v-0.003907c-12.957 12.543-18.234 31.047-13.848 48.535 4.3867 17.492 17.77 31.316 35.113 36.262 17.34 4.9453 36.004 0.26562 48.957-12.277 2.2969-2.4648 10.137-9.9688 21.336-22.008 5.6016 6.2734 13.383 14.168 21.336 22.062 13.004 12.535 31.707 17.18 49.066 12.184 17.355-4.9961 30.73-18.871 35.082-36.398 4.3555-17.531-0.97656-36.051-13.98-48.586zm-6.832 63.617c-7.2734 7.4531-17.211 11.703-27.621 11.82-10.41 0.11328-20.441-3.9141-27.875-11.203-9.5195-9.4062-18.762-19.207-24.809-25.816-1.0625-1.2266-2.6055-1.9297-4.2266-1.9297s-3.1641 0.70312-4.2305 1.9297c-13.215 14.449-22.398 23.633-25.09 26.098l0.003906-0.003906c-10.254 8.0586-23.844 10.484-36.254 6.4805-12.41-4.0039-22.016-13.918-25.629-26.449-3.6094-12.527-0.75391-26.035 7.6172-36.031 2.6875-2.5742 14.895-14.895 30.184-32.09v0.003906c1.8633-2.0039 2.0039-5.0586 0.33594-7.2227-45.469-61.32-99.68-152.1-99.68-238.62 0-96.656 63.168-169.51 146.66-169.51h12.207c83.609 0 146.66 72.801 146.66 169.51 0 86.52-54.207 177.46-99.68 238.56h0.003906c-1.668 2.168-1.5273 5.2227 0.33594 7.2266 11.48 12.992 25.703 28 30.184 31.977v-0.003906c7.4219 7.2266 11.68 17.098 11.848 27.453s-3.7695 20.359-10.953 27.82z" />
    <path
          d="m242.26 192.3c0-72.352 42.84-124.82 101.92-124.82h12.207c59.078 0 101.92 52.473 101.92 124.82 0 72.352-46.48 151.2-85.457 204.57h-0.003906c-1.8555 2.5508-1.293 6.125 1.2617 7.9805 2.5508 1.8555 6.1211 1.293 7.9805-1.2578 39.984-54.938 87.695-136.19 87.695-211.29-0.058594-78.961-47.77-136.3-113.46-136.3h-11.93c-65.91 0-113.62 57.344-113.62 136.3 0 59.695 29.008 130.14 86.184 209.21 25.914 35.777 54.578 69.48 85.734 100.8 2.2734 2.1953 5.8984 2.1328 8.0938-0.14062 2.1953-2.2734 2.1328-5.8945-0.14062-8.0898-1.6797-1.625-168.39-164.64-168.39-301.79z" />
    <path
          d="m317.07 465.41c-16.129 17.863-27.16 28.559-27.273 28.672l0.003906 0.003906c-2.2734 2.1953-2.3359 5.8164-0.14062 8.0898 2.1953 2.2734 5.8203 2.3359 8.0938 0.14062 0.44922-0.44922 11.199-11.199 28-29.23 2.1172-2.3516 1.9297-5.9766-0.42188-8.0938-2.3516-2.1172-5.9727-1.9297-8.0938 0.41797z" />
  </g>
</svg>